Coordinates
version=1
nRows=29
nColumns=18
inDegrees=yes

Units are S.I. units (second, meters, Newtons, ...)
If the header above contains a line with 'inDegrees', this indicates whether rotational values are in degrees (yes) or radians (no).

endheader
time	ground_thorax_rot_x	ground_thorax_rot_y	ground_thorax_rot_z	ground_thorax_tx	ground_thorax_ty	ground_thorax_tz	clav_prot	clav_elev	scapula_abduction	scapula_elevation	scapula_upward_rot	scapula_winging	plane_elv	shoulder_elv	axial_rot	elbow_flexion	pro_sup
      6.36000000	      2.46340574	     -2.33412389	     -7.50733311	     -0.00567617	      0.00556645	      0.00043719	    -27.22696814	     -3.15406956	    -16.67522479	     -5.12224447	     19.69093015	      3.18892457	     37.48090693	     19.55357731	      4.98366508	      0.00000000	     34.32000000
      6.37000000	      2.37745938	     -2.42295747	     -7.50463952	     -0.00563924	      0.00566274	      0.00037441	    -26.95513798	     -3.43990766	    -16.42648737	     -5.21297800	     19.23872742	      3.42828465	     35.41890292	     19.32695461	      7.00034804	      0.00000000	     34.32000000
      6.38000000	      2.52223609	     -2.57649985	     -7.70934134	     -0.00536541	      0.00510106	      0.00090220	    -26.97611595	     -3.36987063	    -16.55503731	     -5.13427239	     19.12288999	      3.42958866	     35.30464241	     19.21195442	      7.00778186	      0.00000000	     34.32000000
      6.39000000	      2.57023293	     -2.25047955	     -7.48390208	     -0.00565834	      0.00557090	      0.00055153	    -26.89164104	     -3.59528904	    -16.53969525	     -5.22831218	     18.82623540	      3.59071121	     31.96107190	     18.79039012	     10.48266582	      0.00000000	     34.32000000
      6.40000000	      2.66905907	     -2.39472623	     -7.66952124	     -0.00541214	      0.00516131	      0.00103780	    -26.90847406	     -3.52611089	    -16.65337167	     -5.15234616	     18.72149139	      3.58993500	     31.87267336	     18.69757741	     10.47914177	      0.00000000	     34.32000000
      6.41000000	      2.68901230	     -2.00897966	     -7.53774895	     -0.00562127	      0.00546776	      0.00065896	    -26.95177139	     -3.65406501	    -16.86136170	     -5.18813441	     18.45449053	      3.69710107	     29.13989166	     18.64479634	     11.31512632	      0.00000000	     34.32000000
      6.42000000	      2.76053434	     -2.17218382	     -7.72425093	     -0.00543126	      0.00511096	      0.00108442	    -26.98434081	     -3.56108930	    -16.98706764	     -5.10287506	     18.38248976	      3.67831404	     29.02195079	     18.59016016	     11.32562129	      0.00000000	     34.32000000
      6.43000000	      2.96548624	     -1.89529310	     -7.58325810	     -0.00567379	      0.00522955	      0.00095610	    -27.12891809	     -3.32807204	    -17.24852860	     -4.95448471	     18.45675846	      3.56342819	     27.35686008	     18.25402965	     11.76260964	      0.00000000	     34.32000000
      6.44000000	      3.06691753	     -2.07305245	     -7.77237772	     -0.00550005	      0.00492450	      0.00125333	    -27.13926677	     -3.26953818	    -17.36922277	     -4.87792238	     18.31888123	      3.57599899	     27.26998169	     18.12622849	     11.77033743	      0.00000000	     34.32000000
      6.45000000	      2.80588418	     -1.69226915	     -7.72475335	     -0.00561389	      0.00528211	      0.00071173	    -27.29928564	     -3.84123618	    -17.72696633	     -5.22796902	     17.93404137	      3.85752009	     24.19652915	     17.62793337	     13.77674498	      0.00000000	     34.32000000
      6.46000000	      2.93659069	     -1.87857992	     -7.90787059	     -0.00542869	      0.00489488	      0.00093807	    -27.29341716	     -3.77679824	    -17.83258344	     -5.14089291	     17.77696769	      3.87318237	     24.11134636	     17.48948657	     13.81028920	      0.00000000	     34.32000000
      6.47000000	      3.02518515	     -2.02685478	     -8.06752006	     -0.00537542	      0.00474831	      0.00112650	    -27.28872473	     -3.71610767	    -17.92121669	     -5.06353151	     17.64849525	      3.88337439	     24.03394233	     17.35598134	     13.82895030	      0.00000000	     34.32000000
      6.48000000	      2.77204506	     -2.19341276	     -7.50941845	     -0.00564313	      0.00546357	      0.00082521	    -26.80730186	     -3.73222491	    -16.98501449	     -5.08859856	     17.83501332	      3.89017270	     19.40952892	     15.84850945	     23.37255724	      0.00000000	     34.32000000
      6.49000000	      2.81143102	     -2.32908292	     -7.69003535	     -0.00538404	      0.00515458	      0.00120768	    -26.83126975	     -3.64528749	    -17.09203971	     -5.00779699	     17.76629892	      3.87398596	     19.32550525	     15.82713035	     23.36856592	      0.00000000	     34.32000000
      6.50000000	      2.90522820	     -1.82564515	     -7.60587183	     -0.00557613	      0.00533568	      0.00089433	    -27.03451621	     -3.73801308	    -17.51147474	     -5.05275256	     17.60632621	      3.92720463	     16.67653952	     15.98991225	     23.57686335	      0.00000000	     34.32000000
      6.51000000	      3.11582928	     -1.82702590	     -7.72214483	     -0.00550939	      0.00514243	      0.00112679	    -27.04994466	     -3.66224807	    -17.61484891	     -4.97428300	     17.51517536	      3.92121101	     15.88144189	     16.16546276	     23.77810338	      0.00000000	     34.32000000
      6.52000000	      2.93884061	     -1.86066713	     -7.52728995	     -0.00559162	      0.00537434	      0.00097748	    -26.90049909	     -3.78736857	    -17.31253459	     -5.06500808	     17.53999742	      3.97378154	     12.95716080	     15.53703586	     27.45145542	      0.00000000	     34.32000000
      6.53000000	      2.96867132	     -1.98328146	     -7.67410978	     -0.00542206	      0.00533730	      0.00113528	    -26.91004266	     -3.71306978	    -17.40130047	     -4.98883432	     17.45550225	      3.96730220	     12.89610946	     15.46929500	     27.44474310	      0.00000000	     34.32000000
      6.54000000	      2.88864251	     -1.71272695	     -7.53183088	     -0.00556691	      0.00546610	      0.00082807	    -27.07940682	     -3.50421930	    -17.58345911	     -4.90502146	     17.71391610	      3.81334026	     10.74248456	     14.72409228	     28.85983059	      0.00000000	     34.32000000
      6.55000000	      2.85748306	     -1.83101185	     -7.64090184	     -0.00543119	      0.00528164	      0.00094947	    -27.09807555	     -3.30171924	    -17.73083634	     -4.72976557	     17.61768324	      3.76528152	     10.55346004	     14.45619307	     28.90881714	      0.00000000	     34.32000000
      6.56000000	      2.94633204	     -2.00498724	     -7.85757250	     -0.00520435	      0.00522229	      0.00111035	    -27.10073662	     -3.19924559	    -17.86066201	     -4.61454302	     17.46233571	      3.76877564	     10.45874668	     14.33379586	     28.90676557	      0.00000000	     34.32000000
      6.57000000	      2.88031356	     -1.62525466	     -7.48106208	     -0.00556127	      0.00559598	      0.00076739	    -27.20065763	     -2.99197083	    -17.86548996	     -4.55139352	     17.81788748	      3.59939670	      5.38951817	     12.80000763	     36.77048745	      0.00000000	     34.32000000
      6.58000000	      3.02294670	     -1.79181343	     -7.70458615	     -0.00538198	      0.00532603	      0.00109269	    -27.18976082	     -2.91565058	    -17.98496708	     -4.44769642	     17.63200696	      3.62182441	      5.30323396	     12.70063302	     36.75732011	      0.00000000	     34.32000000
      6.59000000	      2.89138556	     -1.65827450	     -7.51832951	     -0.00551590	      0.00553389	      0.00073485	    -27.01929520	     -3.09300589	    -17.70458984	     -4.54742582	     17.53881804	      3.72202663	      0.73492448	     12.24384218	     41.17369405	      0.00000000	     34.32000000
      6.60000000	      3.00966498	     -1.78540782	     -7.71122459	     -0.00537159	      0.00519442	      0.00103784	    -27.01029141	     -3.03037112	    -17.79800914	     -4.46368697	     17.39267594	      3.73864731	      0.64582260	     12.21892049	     41.16166949	      0.00000000	     34.32000000
      6.61000000	      3.11742688	     -1.89627946	     -7.87625120	     -0.00529125	      0.00492408	      0.00129883	    -27.00103505	     -2.97345637	    -17.88026322	     -4.38769740	     17.26104624	      3.75383080	      0.52567484	     12.20930047	     41.14608343	      0.00000000	     34.32000000
      6.62000000	      2.97699472	     -1.69288977	     -7.59273260	     -0.00558161	      0.00527742	      0.00084509	    -26.85028731	     -3.23172080	    -17.73259015	     -4.50145611	     16.97061202	      3.92741772	     -2.91369571	     12.44218998	     40.84218571	      0.00000000	     34.32000000
      6.63000000	      3.10401417	     -1.76744662	     -7.69438001	     -0.00555340	      0.00503752	      0.00122210	    -26.83681873	     -3.22159074	    -17.77851628	     -4.46651441	     16.86397578	      3.95215903	     -2.96208695	     12.38706827	     40.83889145	      0.00000000	     34.32000000
      6.64000000	      3.20064210	     -1.82869070	     -7.80488035	     -0.00544669	      0.00488037	      0.00144369	    -26.82390539	     -3.20143939	    -17.81790081	     -4.42805357	     16.77380265	      3.96933135	     -3.02577512	     12.35346954	     40.83768905	      0.00000000	     34.32000000
